<?xml version="1.0" standalone="no"?>
<!DOCTYPE svg PUBLIC "-//W3C//DTD SVG 20010904//EN"
 "http://www.w3.org/TR/2001/REC-SVG-20010904/DTD/svg10.dtd">
<svg version="1.0" xmlns="http://www.w3.org/2000/svg"
 width="396.000000pt" height="396.000000pt" viewBox="0 0 396.000000 396.000000"
 preserveAspectRatio="xMidYMid meet">
<metadata>
Created by potrace 1.11, written by Peter Selinger 2001-2013
</metadata>
<g transform="translate(0.000000,396.000000) scale(0.100000,-0.100000)"
fill="#000000" stroke="none">
<path d="M0 1980 l0 -1980 1980 0 1980 0 0 1980 0 1980 -1980 0 -1980 0 0
-1980z m2380 938 c-1 -7 -94 -452 -208 -988 l-207 -975 -209 -3 c-165 -2 -207
0 -204 10 3 7 103 453 223 991 l219 977 193 0 c148 0 193 -3 193 -12z m-902
-435 l-3 -207 -377 -155 c-207 -86 -375 -157 -374 -159 2 -1 172 -72 377 -157
l374 -154 3 -205 2 -206 -28 0 c-16 0 -312 122 -658 271 -346 149 -635 273
-642 276 -9 4 -12 49 -12 177 l0 172 643 277 c353 152 654 276 670 277 l27 0
-2 -207z m1647 -67 l640 -275 0 -177 0 -178 -639 -273 c-351 -150 -652 -273
-667 -273 l-29 0 0 204 0 203 368 148 c202 81 377 153 389 159 19 10 -28 31
-365 167 l-387 156 -3 206 -2 207 27 0 c16 0 316 -123 668 -274z"/>
</g>
</svg>
