<?xml version="1.0" standalone="no"?>
<!DOCTYPE svg PUBLIC "-//W3C//DTD SVG 20010904//EN"
 "http://www.w3.org/TR/2001/REC-SVG-20010904/DTD/svg10.dtd">
<svg version="1.0" xmlns="http://www.w3.org/2000/svg"
 width="393.000000pt" height="393.000000pt" viewBox="0 0 393.000000 393.000000"
 preserveAspectRatio="xMidYMid meet">
<metadata>
Created by potrace 1.11, written by Peter Selinger 2001-2013
</metadata>
<g transform="translate(0.000000,393.000000) scale(0.100000,-0.100000)"
fill="#000000" stroke="none">
<path d="M109 3326 c-14 -8 -30 -25 -36 -38 -7 -16 -11 -226 -11 -655 1 -691
0 -681 59 -702 16 -5 39 -8 51 -6 29 6 68 49 69 78 0 12 1 277 1 590 l1 567
521 0 c299 -1 544 -5 576 -11 163 -30 314 -120 455 -272 l75 -80 0 -918 0
-919 -69 45 c-81 52 -185 102 -291 138 -76 26 -249 72 -305 80 -16 3 -41 8
-55 11 -56 13 -301 43 -420 51 -47 4 -104 8 -128 10 -23 2 -106 5 -184 6 -78
1 -150 4 -159 6 -14 4 -16 22 -17 126 0 195 1 186 -32 217 -46 43 -119 27
-138 -30 -5 -14 -9 -232 -10 -485 0 -491 1 -500 49 -526 16 -8 496 -11 1818
-11 988 1 1813 1 1834 1 29 1 46 8 68 30 l29 29 0 1309 c0 1224 -2 1309 -18
1329 -9 12 -27 27 -39 33 -15 8 -194 11 -601 11 -610 0 -653 -3 -782 -48 -141
-49 -272 -134 -387 -250 l-72 -72 -80 80 c-136 136 -288 221 -491 277 -14 4
-302 8 -640 10 -517 2 -619 1 -641 -11z m3570 -1093 l0 -928 -97 -2 c-125 -2
-368 -13 -407 -18 -16 -2 -62 -6 -102 -10 -39 -3 -82 -8 -95 -10 -13 -2 -44
-6 -69 -9 -314 -40 -630 -141 -800 -257 l-59 -40 0 915 0 914 39 49 c123 156
326 285 491 313 25 4 282 8 572 9 l526 1 1 -927z m-3129 -1118 c169 -7 290
-18 410 -35 36 -5 83 -12 105 -15 172 -24 414 -94 535 -154 104 -52 214 -130
184 -131 -15 -1 -1497 -1 -1520 -1 -20 1 -21 5 -21 170 l0 170 36 3 c39 3 81
2 271 -7z m3129 -162 l-1 -173 -31 0 c-50 -1 -1437 -1 -1487 -1 l-45 1 67 49
c133 96 352 179 583 220 33 6 69 13 80 15 48 9 103 17 145 21 54 4 150 14 205
20 22 3 119 8 215 11 96 4 176 7 177 8 1 0 22 1 47 1 l46 0 -1 -172z"/>
<path d="M2614 2840 c-31 -12 -54 -49 -54 -85 1 -34 15 -56 47 -73 30 -16 682
-17 717 -1 28 13 57 64 49 88 -12 38 -27 60 -50 70 -29 13 -676 14 -709 1z"/>
<path d="M2614 2299 c-31 -11 -54 -48 -54 -86 0 -43 42 -83 90 -84 19 0 175
-1 345 -1 338 -1 347 0 369 54 17 39 10 71 -21 100 l-25 23 -341 1 c-188 1
-352 -2 -363 -7z"/>
<path d="M2623 1758 c-39 -10 -63 -42 -63 -84 0 -40 39 -84 77 -85 15 0 175
-1 355 -1 355 -1 349 -2 373 55 16 38 9 70 -22 99 l-25 23 -331 1 c-183 1
-346 -3 -364 -8z"/>
<path d="M581 2824 c-38 -32 -42 -85 -10 -124 l21 -25 357 -3 358 -3 25 26
c31 31 37 51 26 91 -16 61 -35 64 -411 64 l-335 0 -31 -26z"/>
<path d="M603 2299 c-30 -11 -53 -48 -53 -85 0 -40 42 -84 81 -85 16 0 166 -1
334 -1 168 0 314 1 325 1 26 1 66 44 72 76 6 30 -24 83 -54 94 -28 10 -677 11
-705 0z"/>
<path d="M597 1753 c-79 -41 -53 -162 35 -164 18 0 175 -1 348 -1 344 -1 352
0 375 55 15 36 5 75 -27 104 -19 17 -44 18 -362 19 -274 1 -348 -2 -369 -13z"/>
</g>
</svg>
